<svg height="512pt" viewBox="-62 0 511 512" width="512pt" xmlns="http://www.w3.org/2000/svg"><path d="m162.921875 512h180c8.285156 0 15-6.714844 15-15v-37.5625c0-18.398438 4.578125-36.707031 13.234375-52.941406 10.96875-20.5625 16.765625-43.75 16.765625-67.054688v-234.441406c0-24.8125-20.1875-45-45-45-5.855469 0-11.449219 1.136719-16.585937 3.179688-5.203126-19.09375-22.691407-33.179688-43.414063-33.179688-5.855469 0-11.449219 1.136719-16.585937 3.179688-5.203126-19.09375-22.691407-33.179688-43.414063-33.179688s-38.207031 14.085938-43.414063 33.179688c-5.136718-2.042969-10.726562-3.179688-16.585937-3.179688-24.8125 0-45 20.1875-45 45v162.363281l-6.972656-6.96875c-29.238281-29.242187-76.816407-29.242187-106.054688 0-5.480469 5.476563-5.882812 14.230469-.933593 20.191407l133.570312 160.75c6.699219 8.0625 10.390625 18.277343 10.390625 28.761718v56.902344c0 8.285156 6.714844 15 15 15zm-125.828125-268.484375c16.542969-8.660156 38.082031-6.472656 52.644531 8.089844l30 30c2.8125 2.8125 6.628907 4.394531 10.605469 4.394531h32.578125c41.355469 0 75 33.644531 75 75 0 8.285156 6.714844 15 15 15s15-6.714844 15-15c0-57.898438-47.101563-105-105-105h-15v-181c0-8.269531 6.730469-15 15-15s15 6.730469 15 15v121c0 8.285156 6.714844 15 15 15s15-6.714844 15-15v-151c0-8.269531 6.730469-15 15-15s15 6.730469 15 15v151c0 8.285156 6.714844 15 15 15s15-6.714844 15-15v-121c0-8.269531 6.730469-15 15-15s15 6.730469 15 15v121c0 8.285156 6.714844 15 15 15s15-6.714844 15-15v-91c0-8.269531 6.730469-15 15-15s15 6.730469 15 15v234.441406c0 18.398438-4.578125 36.703125-13.234375 52.9375-10.96875 20.5625-16.765625 43.75-16.765625 67.058594v22.5625h-150v-41.902344c0-17.472656-6.148437-34.496094-17.3125-47.933594zm0 0"/></svg>